{
.appVersion = "3223";
.formatVersion = 3;
DisplayStrings = (
"å̊˚ÅoAĄ̨",
"ÅḀŮaåḁuů",
"ĄĘIĮǪOǬUŲaąEeęOoǫOooǭuų"
);
date = "2023-09-29 07:07:32 +0000";
familyName = "Danfo*";
fontMaster = (
{
guides = (
{
pos = (45,636);
},
{
pos = (358,412);
},
{
pos = (322,484);
},
{
pos = (358,412);
},
{
pos = (322,484);
},
{
pos = (358,412);
},
{
pos = (322,484);
}
);
id = m01;
metricValues = (
{
pos = 900;
},
{
over = 16;
pos = 716;
},
{
pos = 412;
},
{
over = -14;
},
{
pos = -100;
}
);
name = Flat;
}
);
glyphs = (
{
color = 2;
glyphname = A;
lastChange = "2023-11-01 15:51:28 +0000";
layers = (
{
anchors = (
{
name = bottom;
pos = (355,0);
},
{
name = ogonek;
pos = (675,0);
},
{
name = top;
pos = (355,716);
}
);
layerId = m01;
shapes = (
{
closed = 1;
nodes = (
(333,0,l),
(335,445,l),
(318,445,ls),
(299,445,o),
(281,454,o),
(281,473,cs),
(281,487,o),
(292,501,o),
(318,501,cs),
(405,501,ls),
(428,501,o),
(441,490,o),
(441,474,cs),
(441,457,o),
(428,445,o),
(405,445,cs),
(377,445,l),
(382,0,l),
(675,0,l),
(677,548,l),
(578,548,o),
(478,625,o),
(460,716,c),
(260,716,l),
(253,629,o),
(141,548,o),
(32,548,c),
(38,0,l)
);
},
{
closed = 1;
nodes = (
(361,647,l),
(413,540,l),
(384,540,ls),
(369,540,o),
(367,541,o),
(358,557,c),
(350,541,o),
(348,539,o),
(333,539,cs),
(312,539,l)
);
}
);
width = 709;
}
);
unicode = 65;
},
{
color = 2;
glyphname = B;
lastChange = "2023-11-01 15:50:48 +0000";
layers = (
{
anchors = (
{
name = bottom;
pos = (342,0);
},
{
name = center;
pos = (342,358);
},
{
name = top;
pos = (342,716);
}
);
layerId = m01;
shapes = (
{
closed = 1;
nodes = (
(463,1,ls),
(591,1,o),
(648,82,o),
(648,176,cs),
(648,348,ls),
(648,424,o),
(623,484,o),
(537,506,c),
(537,516,l),
(627,516,o),
(647,569,o),
(647,618,cs),
(647,661,o),
(634,716,o),
(556,716,cs),
(37,716,l),
(37,636,l),
(76,636,o),
(103,618,o),
(103,590,cs),
(103,462,ls),
(103,432,o),
(76,404,o),
(37,404,c),
(37,0,l)
);
},
{
closed = 1;
nodes = (
(284,479,l),
(391,478,ls),
(431,478,o),
(447,456,o),
(447,431,cs),
(447,407,o),
(431,383,o),
(397,383,cs),
(283,382,l)
);
},
{
closed = 1;
nodes = (
(286,649,l),
(407,649,ls),
(431,649,o),
(451,639,o),
(451,620,cs),
(451,602,o),
(437,585,o),
(402,585,cs),
(287,585,l)
);
}
);
width = 683;
}
);
unicode = 66;
},
{
color = 2;
glyphname = C;
lastChange = "2023-11-01 15:50:48 +0000";
layers = (
{
anchors = (
{
name = bottom;
pos = (326,0);
},
{
name = top;
pos = (326,716);
}
);
layerId = m01;
shapes = (
{
closed = 1;
nodes = (
(442,0,ls),
(529,0,o),
(612,41,o),
(613,145,cs),
(616,488,l),
(485,488,l),
(485,449,o),
(469,416,o),
(425,416,cs),
(385,416,ls),
(348,416,o),
(317,437,o),
(317,466,cs),
(317,579,ls),
(317,617,o),
(340,628,o),
(361,628,cs),
(439,628,ls),
(460,628,o),
(491,616,o),
(493,595,cs),
(498,549,l),
(620,551,l),
(620,668,o),
(520,716,o),
(441,716,cs),
(175,716,ls),
(101,716,o),
(32,661,o),
(32,549,cs),
(32,161,ls),
(32,62,o),
(78,0,o),
(179,0,cs)
);
}
);
width = 652;
}
);
unicode = 67;
},
{
color = 2;
glyphname = D;
lastChange = "2023-11-01 15:50:48 +0000";
layers = (
{
anchors = (
{
name = bottom;
pos = (303,0);
},
{
name = center;
pos = (303,358);
},
{
name = top;
pos = (303,716);
}
);
layerId = m01;
shapes = (
{
closed = 1;
nodes = (
(417,0,ls),
(531,0,o),
(574,87,o),
(574,162,cs),
(574,586,ls),
(574,661,o),
(534,716,o),
(444,716,cs),
(33,716,l),
(33,653,l),
(95,653,o),
(106,604,o),
(106,566,cs),
(106,465,ls),
(106,430,o),
(95,386,o),
(33,386,c),
(33,0,l)
);
},
{
closed = 1;
nodes = (
(324,642,l),
(386,642,ls),
(418,642,o),
(439,604,o),
(439,549,cs),
(439,495,o),
(419,471,o),
(393,471,cs),
(324,471,l)
);
}
);
width = 606;
}
);
unicode = 68;
},
{
color = 2;
glyphname = E;
lastChange = "2023-11-01 16:06:44 +0000";
layers = (
{
anchors = (
{
name = bottom;
pos = (321,0);
},
{
name = ogonek;
pos = (610,0);
},
{
name = top;
pos = (321,716);
},
{
name = topleft;
pos = (20,716);
}
);
layerId = m01;
shapes = (
{
closed = 1;
nodes = (
(610,0,l),
(607,460,l),
(489,460,l),
(489,422,o),
(481,404,o),
(460,404,cs),
(287,404,l),
(287,473,l),
(438,473,l),
(438,552,l),
(287,552,l),
(287,615,l),
(453,615,ls),
(479,615,o),
(491,590,o),
(491,556,c),
(606,556,l),
(606,716,l),
(35,716,l),
(35,639,l),
(89,639,o),
(112,628,o),
(112,579,cs),
(112,442,ls),
(112,412,o),
(98,390,o),
(35,390,c),
(35,0,l)
);
}
);
width = 642;
}
);
unicode = 69;
},
{
color = 2;
glyphname = F;
lastChange = "2023-11-01 15:50:48 +0000";
layers = (
{
anchors = (
{
name = bottom;
pos = (320,0);
},
{
name = top;
pos = (320,716);
}
);
layerId = m01;
shapes = (
{
closed = 1;
nodes = (
(403,0,l),
(400,389,l),
(342,389,ls),
(302,389,o),
(272,390,o),
(272,452,cs),
(272,477,l),
(433,477,l),
(433,549,l),
(272,549,l),
(272,617,l),
(436,617,ls),
(483,617,o),
(501,595,o),
(501,527,c),
(608,527,l),
(605,716,l),
(32,716,l),
(32,658,l),
(93,658,o),
(120,647,o),
(120,593,cs),
(120,471,ls),
(120,418,o),
(96,389,o),
(40,389,c),
(40,0,l)
);
}
);
width = 640;
}
);
unicode = 70;
},
{
color = 2;
glyphname = G;
lastChange = "2023-11-01 15:50:48 +0000";
layers = (
{
anchors = (
{
name = bottom;
pos = (300,0);
},
{
name = top;
pos = (300,716);
}
);
layerId = m01;
shapes = (
{
closed = 1;
nodes = (
(378,0,ls),
(447,0,o),
(468,32,o),
(468,110,cs),
(468,189,l),
(490,189,o),
(502,183,o),
(501,94,cs),
(500,0,l),
(542,0,ls),
(572,0,o),
(576,10,o),
(576,59,cs),
(580,486,l),
(468,486,l),
(470,465,ls),
(473,433,o),
(460,403,o),
(423,403,cs),
(378,403,ls),
(350,403,o),
(327,424,o),
(327,446,cs),
(326,587,ls),
(326,620,o),
(343,639,o),
(386,639,cs),
(412,639,ls),
(447,639,o),
(468,629,o),
(471,599,cs),
(475,561,l),
(588,570,l),
(588,660,o),
(524,716,o),
(459,716,cs),
(135,716,ls),
(68,716,o),
(18,660,o),
(17,553,cs),
(13,201,ls),
(12,103,o),
(56,0,o),
(162,0,cs)
);
}
);
width = 600;
}
);
unicode = 71;
},
{
color = 2;
glyphname = H;
lastChange = "2023-11-01 15:50:48 +0000";
layers = (
{
anchors = (
{
name = bottom;
pos = (369,0);
},
{
name = center;
pos = (369,358);
},
{
name = top;
pos = (369,716);
},
{
name = topleft;
pos = (20,716);
}
);
background = {
shapes = (
{
closed = 1;
nodes = (
(648,0,l),
(658,443,l),
(631,443,o),
(594,450,o),
(594,476,cs),
(594,568,ls),
(594,610,o),
(600,633,o),
(662,633,c),
(662,714,l),
(394,713,l),
(394,631,l),
(425,631,o),
(462,614,o),
(462,581,c),
(462,564,l),
(275,564,l),
(275,610,o),
(300,631,o),
(339,631,c),
(339,715,l),
(76,716,l),
(76,636,l),
(130,636,o),
(147,596,o),
(147,568,cs),
(147,526,ls),
(147,470,o),
(137,440,o),
(81,440,c),
(81,0,l),
(344,0,l),
(340,434,l),
(305,434,o),
(280,461,o),
(280,482,cs),
(280,506,l),
(459,506,l),
(459,480,ls),
(459,461,o),
(429,432,o),
(394,432,c),
(395,0,l)
);
}
);
};
layerId = m01;
shapes = (
{
closed = 1;
nodes = (
(340,0,l),
(340,434,l),
(303,434,o),
(275,457,o),
(275,482,cs),
(275,506,l),
(462,506,l),
(462,482,ls),
(462,457,o),
(434,434,o),
(398,434,c),
(398,0,l),
(689,0,l),
(689,440,l),
(631,440,o),
(621,463,o),
(621,506,cs),
(621,567,ls),
(621,607,o),
(638,636,o),
(689,636,c),
(689,716,l),
(398,716,l),
(398,631,l),
(442,631,o),
(462,610,o),
(462,575,cs),
(462,564,l),
(275,564,l),
(275,575,ls),
(275,610,o),
(295,631,o),
(340,631,c),
(340,716,l),
(48,716,l),
(48,636,l),
(99,636,o),
(116,607,o),
(116,567,cs),
(116,506,ls),
(116,463,o),
(106,440,o),
(48,440,c),
(48,0,l)
);
}
);
width = 737;
}
);
unicode = 72;
},
{
color = 2;
glyphname = I;
lastChange = "2023-11-01 16:07:35 +0000";
layers = (
{
anchors = (
{
name = bottom;
pos = (206,0);
},
{
name = ogonek;
pos = (363,0);
},
{
name = top;
pos = (206,716);
},
{
name = topleft;
pos = (20,716);
}
);
background = {
shapes = (
{
closed = 1;
nodes = (
(199,16,l),
(362,16,l),
(362,422,l),
(309,422,o),
(290,440,o),
(289,468,cs),
(287,573,ls),
(287,597,o),
(313,625,o),
(337,625,c),
(372,626,l),
(371,716,l),
(199,717,l),
(46,718,l),
(44,633,l),
(90,633,o),
(124,613,o),
(124,557,cs),
(124,499,ls),
(124,464,o),
(114,428,o),
(48,428,c),
(50,16,l)
);
}
);
};
layerId = m01;
shapes = (
{
closed = 1;
nodes = (
(363,0,l),
(363,428,l),
(297,428,o),
(287,464,o),
(287,499,cs),
(287,557,ls),
(287,613,o),
(321,633,o),
(363,633,c),
(363,716,l),
(48,716,l),
(48,633,l),
(90,633,o),
(124,613,o),
(124,557,cs),
(124,499,ls),
(124,464,o),
(114,428,o),
(48,428,c),
(48,0,l)
);
}
);
width = 411;
}
);
metricLeft = H;
metricRight = H;
unicode = 73;
},
{
color = 2;
glyphname = J;
lastChange = "2023-11-01 15:50:48 +0000";
layers = (
{
anchors = (
{
name = bottom;
pos = (333,0);
},
{
name = top;
pos = (333,716);
}
);
layerId = m01;
shapes = (
{
closed = 1;
nodes = (
(449,0,ls),
(535,0,o),
(635,54,o),
(633,183,cs),
(630,410,l),
(552,410,o),
(545,441,o),
(545,477,cs),
(545,569,ls),
(545,627,o),
(569,645,o),
(632,645,c),
(634,716,l),
(296,716,l),
(296,645,l),
(377,645,o),
(394,619,o),
(394,556,cs),
(394,422,ls),
(394,384,o),
(385,335,o),
(320,335,cs),
(165,336,ls),
(104,336,o),
(93,346,o),
(93,388,c),
(32,388,l),
(32,203,ls),
(32,87,o),
(115,0,o),
(264,0,cs)
);
}
);
width = 666;
}
);
unicode = 74;
},
{
color = 2;
glyphname = K;
lastChange = "2023-11-01 15:50:48 +0000";
layers = (
{
anchors = (
{
name = bottom;
pos = (407,0);
},
{
name = top;
pos = (407,716);
}
);
layerId = m01;
shapes = (
{
closed = 1;
nodes = (
(284,0,l),
(284,370,l),
(260,370,o),
(244,390,o),
(244,409,cs),
(244,429,o),
(263,444,o),
(294,444,cs),
(324,444,o),
(341,430,o),
(341,408,cs),
(341,391,o),
(331,370,o),
(313,370,c),
(313,0,l),
(778,0,l),
(778,314,l),
(731,330,o),
(695,347,o),
(638,380,cs),
(609,397,o),
(559,429,o),
(520,462,c),
(624,550,ls),
(642,565,o),
(655,575,o),
(686,585,cs),
(718,595,o),
(737,595,o),
(778,595,c),
(778,716,l),
(497,716,ls),
(473,716,o),
(459,709,o),
(459,684,cs),
(459,660,o),
(472,652,o),
(493,652,cs),
(505,652,l),
(506,638,l),
(309,474,l),
(299,487,o),
(293,512,o),
(293,533,cs),
(293,602,o),
(355,632,o),
(412,632,c),
(412,716,l),
(36,716,l),
(36,633,l),
(91,633,o),
(117,611,o),
(117,557,cs),
(117,429,ls),
(117,379,o),
(97,349,o),
(36,349,c),
(36,0,l)
);
}
);
width = 814;
}
);
unicode = 75;
},
{
color = 2;
glyphname = L;
lastChange = "2023-11-01 15:50:48 +0000";
layers = (
{
anchors = (
{
name = bottom;
pos = (343,0);
},
{
name = center;
pos = (343,358);
},
{
name = top;
pos = (343,716);
},
{
name = topright;
pos = (665,716);
}
);
layerId = m01;
shapes = (
{
closed = 1;
nodes = (
(642,0,l),
(653,404,l),
(586,404,l),
(586,382,o),
(582,340,o),
(563,318,cs),
(550,303,o),
(524,292,o),
(488,292,cs),
(343,292,ls),
(299,292,o),
(282,314,o),
(282,362,cs),
(282,568,ls),
(282,636,o),
(307,649,o),
(361,649,c),
(361,716,l),
(32,716,l),
(32,649,l),
(92,649,o),
(121,636,o),
(121,568,cs),
(121,453,ls),
(121,391,o),
(113,368,o),
(32,368,c),
(32,0,l)
);
}
);
width = 685;
}
);
unicode = 76;
},
{
color = 2;
glyphname = M;
lastChange = "2023-11-01 15:50:48 +0000";
layers = (
{
anchors = (
{
name = bottom;
pos = (371,0);
},
{
name = top;
pos = (371,716);
}
);
layerId = m01;
shapes = (
{
closed = 1;
nodes = (
(354,0,l),
(354,338,l),
(290,338,o),
(268,378,o),
(268,418,cs),
(268,517,l),
(375,417,l),
(482,517,l),
(482,418,ls),
(482,378,o),
(460,338,o),
(396,338,c),
(396,0,l),
(711,0,l),
(711,351,l),
(650,351,o),
(629,385,o),
(629,421,cs),
(628,550,ls),
(628,584,o),
(646,618,o),
(711,618,c),
(711,716,l),
(460,716,l),
(375,549,l),
(290,716,l),
(39,716,l),
(39,618,l),
(104,618,o),
(122,584,o),
(122,550,cs),
(121,421,ls),
(121,385,o),
(100,351,o),
(39,351,c),
(39,0,l)
);
}
);
width = 741;
}
);
unicode = 77;
},
{
color = 2;
glyphname = N;
lastChange = "2023-11-01 15:50:48 +0000";
layers = (
{
anchors = (
{
name = bottom;
pos = (388,0);
},
{
name = top;
pos = (388,716);
}
);
layerId = m01;
shapes = (
{
closed = 1;
nodes = (
(356,0,l),
(356,377,l),
(306,377,o),
(267,399,o),
(267,445,cs),
(267,507,l),
(453,377,l),
(392,377,l),
(392,0,l),
(731,0,l),
(731,377,l),
(683,377,o),
(657,416,o),
(657,463,cs),
(657,538,ls),
(657,610,o),
(688,622,o),
(731,622,c),
(731,716,l),
(439,716,l),
(439,622,l),
(483,622,o),
(522,608,o),
(522,538,cs),
(522,467,l),
(196,716,l),
(36,716,l),
(36,636,l),
(86,636,o),
(117,615,o),
(117,553,cs),
(117,457,ls),
(117,399,o),
(92,377,o),
(36,377,c),
(36,0,l)
);
}
);
width = 776;
}
);
unicode = 78;
},
{
color = 2;
glyphname = O;
lastChange = "2023-11-01 16:06:13 +0000";
layers = (
{
anchors = (
{
name = bottom;
pos = (357,0);
},
{
name = center;
pos = (357,358);
},
{
name = ogonek;
pos = (451,0);
},
{
name = top;
pos = (357,716);
},
{
name = topleft;
pos = (20,716);
},
{
name = topright;
pos = (693,716);
}
);
layerId = m01;
shapes = (
{
closed = 1;
nodes = (
(525,0,ls),
(623,0,o),
(673,38,o),
(674,111,cs),
(681,559,ls),
(682,640,o),
(608,716,o),
(528,716,cs),
(164,716,ls),
(88,716,o),
(32,659,o),
(32,580,cs),
(33,140,ls),
(33,54,o),
(83,0,o),
(163,0,cs)
);
},
{
closed = 1;
nodes = (
(383,442,o),
(362,465,o),
(362,485,cs),
(362,615,ls),
(362,636,o),
(383,656,o),
(404,656,cs),
(501,656,ls),
(521,656,o),
(545,631,o),
(545,602,cs),
(545,492,ls),
(545,468,o),
(524,442,o),
(501,442,cs),
(477,442,ls),
(462,442,o),
(460,443,o),
(451,461,c),
(443,443,o),
(441,442,o),
(426,442,cs),
(403,442,ls)
);
}
);
width = 713;
}
);
unicode = 79;
},
{
color = 2;
glyphname = P;
lastChange = "2023-11-01 15:50:48 +0000";
layers = (
{
anchors = (
{
name = bottom;
pos = (343,0);
},
{
name = top;
pos = (343,716);
}
);
layerId = m01;
shapes = (
{
closed = 1;
nodes = (
(343,0,l),
(349,401,l),
(307,401,ls),
(246,401,o),
(236,432,o),
(236,461,cs),
(236,489,l),
(532,490,ls),
(609,490,o),
(653,529,o),
(653,604,cs),
(653,673,o),
(616,717,o),
(490,717,cs),
(35,717,l),
(35,654,l),
(71,654,o),
(90,633,o),
(90,595,cs),
(90,461,ls),
(90,417,o),
(79,401,o),
(35,401,c),
(35,0,l)
);
},
{
closed = 1;
nodes = (
(236,628,l),
(437,628,ls),
(475,628,o),
(484,619,o),
(484,605,cs),
(484,591,o),
(475,579,o),
(441,579,cs),
(236,579,l)
);
}
);
width = 685;
}
);
unicode = 80;
},
{
color = 2;
glyphname = Q;
lastChange = "2023-11-01 15:50:48 +0000";
layers = (
{
anchors = (
{
name = bottom;
pos = (357,0);
},
{
name = top;
pos = (357,716);
}
);
layerId = m01;
shapes = (
{
closed = 1;
nodes = (
(525,0,ls),
(623,0,o),
(673,38,o),
(674,111,cs),
(681,559,ls),
(682,640,o),
(608,716,o),
(528,716,cs),
(164,716,ls),
(88,716,o),
(32,659,o),
(32,580,cs),
(33,140,ls),
(33,54,o),
(83,0,o),
(163,0,cs)
);
},
{
closed = 1;
nodes = (
(383,442,o),
(362,465,o),
(362,485,cs),
(362,615,ls),
(362,636,o),
(383,656,o),
(404,656,cs),
(501,656,ls),
(521,656,o),
(545,631,o),
(545,602,cs),
(545,492,ls),
(545,468,o),
(524,442,o),
(501,442,cs),
(477,442,ls),
(462,442,o),
(460,443,o),
(451,461,c),
(443,443,o),
(441,442,o),
(426,442,cs),
(403,442,ls)
);
},
{
closed = 1;
nodes = (
(355,-39,ls),
(355,-56,o),
(370,-78,o),
(387,-78,cs),
(525,-78,l),
(525,-23,l),
(410,-28,l),
(410,27,l),
(355,27,l)
);
}
);
width = 713;
}
);
unicode = 81;
},
{
color = 2;
glyphname = R;
lastChange = "2023-11-01 15:50:48 +0000";
layers = (
{
anchors = (
{
name = bottom;
pos = (300,0);
},
{
name = top;
pos = (300,716);
}
);
layerId = m01;
shapes = (
{
closed = 1;
nodes = (
(279,0,l),
(279,317,l),
(251,317,o),
(213,327,o),
(213,357,cs),
(213,386,o),
(249,386,o),
(302,386,cs),
(346,386,o),
(386,386,o),
(386,357,cs),
(386,334,o),
(361,317,o),
(330,317,c),
(330,0,l),
(574,0,l),
(574,293,ls),
(574,366,o),
(496,446,o),
(403,446,cs),
(345,446,ls),
(303,446,o),
(284,454,o),
(284,489,c),
(437,489,ls),
(557,489,o),
(570,553,o),
(570,595,cs),
(570,689,o),
(505,716,o),
(433,716,cs),
(40,716,l),
(40,666,l),
(79,666,o),
(100,638,o),
(100,609,cs),
(101,537,ls),
(101,507,o),
(84,477,o),
(31,477,c),
(30,0,l)
);
},
{
closed = 1;
nodes = (
(224,635,l),
(361,635,ls),
(388,635,o),
(403,622,o),
(403,606,cs),
(403,589,o),
(386,573,o),
(362,573,cs),
(224,573,l)
);
}
);
width = 600;
}
);
unicode = 82;
},
{
color = 2;
glyphname = S;
lastChange = "2023-11-01 15:50:48 +0000";
layers = (
{
anchors = (
{
name = bottom;
pos = (363,0);
},
{
name = top;
pos = (363,716);
}
);
layerId = m01;
shapes = (
{
closed = 1;
nodes = (
(521,0,ls),
(624,0,o),
(689,66,o),
(689,144,cs),
(689,335,ls),
(689,476,o),
(504,497,o),
(468,503,cs),
(432,509,o),
(359,520,o),
(359,564,cs),
(359,593,o),
(391,603,o),
(412,603,cs),
(442,603,o),
(471,583,o),
(471,541,c),
(694,541,l),
(694,600,o),
(693,631,o),
(672,660,cs),
(642,701,o),
(583,716,o),
(537,716,cs),
(173,716,ls),
(112,716,o),
(59,679,o),
(59,624,cs),
(59,520,o),
(246,482,o),
(371,455,cs),
(422,444,o),
(466,434,o),
(466,393,cs),
(466,357,o),
(431,342,o),
(406,342,cs),
(382,342,o),
(346,356,o),
(346,402,cs),
(346,435,l),
(32,436,l),
(32,138,ls),
(32,51,o),
(113,0,o),
(180,0,cs)
);
}
);
width = 726;
}
);
unicode = 83;
},
{
color = 2;
glyphname = T;
lastChange = "2023-11-01 15:50:48 +0000";
layers = (
{
anchors = (
{
name = bottom;
pos = (331,0);
},
{
name = center;
pos = (331,358);
},
{
name = top;
pos = (331,716);
}
);
layerId = m01;
shapes = (
{
closed = 1;
nodes = (
(519,0,l),
(514,405,l),
(385,405,l),
(383,546,l),
(404,552,o),
(423,555,o),
(440,555,cs),
(487,555,o),
(518,534,o),
(518,505,cs),
(518,466,l),
(631,465,l),
(631,716,l),
(33,716,l),
(33,465,l),
(147,466,l),
(147,505,ls),
(147,534,o),
(177,555,o),
(224,555,cs),
(241,555,o),
(260,552,o),
(281,546,c),
(279,405,l),
(150,405,l),
(145,0,l)
);
}
);
width = 662;
}
);
unicode = 84;
},
{
color = 2;
glyphname = U;
lastChange = "2023-11-01 16:06:22 +0000";
layers = (
{
anchors = (
{
name = bottom;
pos = (318,0);
},
{
name = ogonek;
pos = (615,0);
},
{
name = top;
pos = (318,716);
},
{
name = topright;
pos = (615,716);
}
);
layerId = m01;
shapes = (
{
closed = 1;
nodes = (
(428,1,o),
(504,47,o),
(504,160,c),
(511,160,l),
(524,0,l),
(615,0,l),
(615,412,l),
(557,412,o),
(534,444,o),
(534,524,cs),
(534,604,o),
(557,636,o),
(615,636,c),
(615,716,l),
(350,716,l),
(350,636,l),
(386,636,o),
(395,583,o),
(395,503,cs),
(395,423,o),
(386,376,o),
(350,376,cs),
(339,376,o),
(327,376,o),
(316,391,c),
(306,376,o),
(295,376,o),
(285,376,cs),
(249,376,o),
(240,423,o),
(240,503,cs),
(240,583,o),
(249,636,o),
(285,636,c),
(285,716,l),
(20,716,l),
(20,636,l),
(78,636,o),
(101,604,o),
(101,524,cs),
(101,444,o),
(78,412,o),
(20,412,c),
(19,190,ls),
(18,53,o),
(77,1,o),
(258,1,cs)
);
}
);
width = 635;
}
);
unicode = 85;
},
{
color = 2;
glyphname = V;
lastChange = "2023-11-01 15:50:48 +0000";
layers = (
{
anchors = (
{
name = bottom;
pos = (349,0);
},
{
name = top;
pos = (349,716);
}
);
layerId = m01;
shapes = (
{
closed = 1;
nodes = (
(455,0,l),
(590,568,ls),
(599,606,o),
(605,624,o),
(662,624,c),
(666,716,l),
(436,716,l),
(437,624,l),
(468,624,o),
(489,600,o),
(476,553,cs),
(402,279,l),
(344,568,ls),
(338,596,o),
(344,624,o),
(385,624,c),
(385,716,l),
(32,716,l),
(32,624,l),
(69,624,o),
(93,600,o),
(99,567,cs),
(202,0,l)
);
}
);
width = 698;
}
);
unicode = 86;
},
{
color = 2;
glyphname = W;
lastChange = "2023-11-01 15:50:48 +0000";
layers = (
{
anchors = (
{
name = bottom;
pos = (357,0);
},
{
name = top;
pos = (357,716);
}
);
layerId = m01;
shapes = (
{
closed = 1;
nodes = (
(304,0,l),
(304,314,l),
(260,314,l),
(358,417,l),
(430,314,l),
(386,314,l),
(386,0,l),
(671,0,l),
(672,455,l),
(618,455,o),
(601,487,o),
(601,520,cs),
(601,575,ls),
(601,628,o),
(618,629,o),
(681,629,c),
(680,716,l),
(402,716,l),
(402,629,l),
(456,629,o),
(465,591,o),
(465,562,cs),
(465,477,l),
(358,574,l),
(250,477,l),
(250,573,ls),
(250,611,o),
(262,629,o),
(308,629,c),
(308,716,l),
(32,716,l),
(32,629,l),
(87,629,o),
(110,614,o),
(110,579,cs),
(110,510,ls),
(110,477,o),
(95,443,o),
(35,443,c),
(35,0,l)
);
}
);
width = 713;
}
);
unicode = 87;
},
{
color = 2;
glyphname = X;
lastChange = "2023-11-01 15:50:48 +0000";
layers = (
{
anchors = (
{
name = bottom;
pos = (306,0);
},
{
name = top;
pos = (306,716);
}
);
layerId = m01;
shapes = (
{
closed = 1;
nodes = (
(293,0,l),
(287,334,l),
(261,334,o),
(246,343,o),
(235,360,c),
(306,455,l),
(380,352,l),
(366,334,o),
(348,331,o),
(328,331,c),
(332,0,l),
(579,0,l),
(579,360,l),
(519,360,l),
(416,481,l),
(512,612,ls),
(527,632,o),
(543,647,o),
(579,647,c),
(579,716,l),
(338,716,l),
(338,654,l),
(358,647,o),
(368,640,o),
(378,622,c),
(311,520,l),
(237,623,l),
(243,641,o),
(256,651,o),
(275,658,c),
(275,716,l),
(32,716,l),
(32,646,l),
(64,646,o),
(82,636,o),
(96,617,cs),
(199,481,l),
(97,360,l),
(32,360,l),
(32,0,l)
);
}
);
width = 611;
}
);
unicode = 88;
},
{
color = 2;
glyphname = Y;
lastChange = "2023-11-01 15:50:48 +0000";
layers = (
{
anchors = (
{
name = bottom;
pos = (331,0);
},
{
name = top;
pos = (331,716);
},
{
name = topleft;
pos = (20,716);
}
);
layerId = m01;
shapes = (
{
closed = 1;
nodes = (
(522,0,l),
(522,357,l),
(412,357,l),
(412,397,l),
(430,406,o),
(469,438,o),
(514,490,cs),
(561,544,o),
(576,575,o),
(592,597,cs),
(600,608,o),
(609,612,o),
(630,612,c),
(630,716,l),
(367,716,l),
(367,618,l),
(417,618,ls),
(429,618,o),
(440,612,o),
(440,598,cs),
(440,581,o),
(425,565,o),
(402,543,cs),
(331,474,l),
(260,543,ls),
(234,568,o),
(222,582,o),
(222,597,cs),
(222,612,o),
(233,618,o),
(245,618,cs),
(295,618,l),
(295,716,l),
(32,716,l),
(32,612,l),
(53,612,o),
(62,608,o),
(70,597,cs),
(83,579,o),
(101,544,o),
(148,490,cs),
(195,436,o),
(233,406,o),
(250,397,c),
(250,357,l),
(140,357,l),
(140,0,l)
);
}
);
width = 662;
}
);
unicode = 89;
},
{
color = 2;
glyphname = Z;
lastChange = "2023-11-01 15:50:48 +0000";
layers = (
{
anchors = (
{
name = bottom;
pos = (325,0);
},
{
name = center;
pos = (325,358);
},
{
name = top;
pos = (325,716);
}
);
layerId = m01;
shapes = (
{
closed = 1;
nodes = (
(626,0,l),
(626,416,l),
(532,416,l),
(532,382,o),
(507,364,o),
(483,364,cs),
(280,364,l),
(308,346,l),
(626,647,l),
(626,716,l),
(33,716,l),
(33,488,l),
(133,488,l),
(133,518,o),
(149,537,o),
(180,537,cs),
(315,537,l),
(32,210,l),
(32,0,l)
);
}
);
width = 650;
}
);
unicode = 90;
},
{
glyphname = V.ss01;
lastChange = "2023-11-01 15:50:48 +0000";
layers = (
{
anchors = (
{
name = bottom;
pos = (385,0);
},
{
name = top;
pos = (385,716);
}
);
layerId = m01;
shapes = (
{
closed = 1;
nodes = (
(32,716,l),
(32,650,l),
(79,646,o),
(206,555,o),
(206,456,cs),
(206,408,o),
(188,373,o),
(98,367,c),
(193,0,l),
(539,0,l),
(674,359,l),
(636,359,o),
(574,385,o),
(574,501,cs),
(574,555,o),
(619,627,o),
(736,627,c),
(737,716,l),
(438,716,l),
(438,656,l),
(481,656,o),
(514,625,o),
(514,597,cs),
(514,558,o),
(498,533,o),
(478,501,cs),
(428,421,l),
(376,508,ls),
(356,541,o),
(333,576,o),
(333,612,cs),
(333,638,o),
(362,656,o),
(393,656,c),
(393,716,l)
);
}
);
width = 769;
}
);
},
{
glyphname = zero;
lastChange = "2023-11-01 14:16:24 +0000";
layers = (
{
layerId = m01;
shapes = (
{
closed = 1;
nodes = (
(510,0,ls),
(600,0,o),
(621,67,o),
(622,154,cs),
(627,546,ls),
(628,630,o),
(578,716,o),
(490,716,cs),
(207,716,ls),
(98,716,o),
(32,670,o),
(32,559,cs),
(32,123,ls),
(30,58,o),
(107,0,o),
(178,0,cs)
);
},
{
closed = 1;
nodes = (
(410,414,o),
(387,427,o),
(389,467,cs),
(394,566,ls),
(395,587,o),
(397,608,o),
(425,608,cs),
(518,608,ls),
(542,608,o),
(555,594,o),
(557,554,cs),
(561,453,ls),
(562,434,o),
(540,415,o),
(517,415,cs),
(438,414,ls)
);
}
);
width = 659;
}
);
unicode = 48;
},
{
glyphname = one;
lastChange = "2023-11-01 14:57:17 +0000";
layers = (
{
layerId = m01;
shapes = (
{
closed = 1;
nodes = (
(471,0,l),
(471,412,l),
(383,412,l),
(383,716,l),
(158,716,l),
(158,650,o),
(93,595,o),
(42,595,c),
(42,543,l),
(158,544,l),
(158,412,l),
(32,412,l),
(32,0,l)
);
}
);
width = 503;
}
);
unicode = 49;
},
{
glyphname = two;
lastChange = "2023-11-01 14:57:29 +0000";
layers = (
{
layerId = m01;
shapes = (
{
closed = 1;
nodes = (
(590,0,l),
(594,472,l),
(506,472,l),
(506,439,o),
(501,412,o),
(482,412,c),
(249,412,l),
(250,412,l),
(250,442,l),
(443,517,ls),
(498,539,o),
(553,549,o),
(553,635,cs),
(553,690,o),
(525,716,o),
(445,716,cs),
(32,716,l),
(32,541,l),
(201,541,l),
(201,568,o),
(209,603,o),
(263,603,cs),
(291,603,o),
(315,589,o),
(315,565,cs),
(315,548,o),
(297,533,o),
(286,528,cs),
(32,412,l),
(32,0,l)
);
}
);
width = 626;
}
);
unicode = 50;
},
{
glyphname = three;
lastChange = "2023-11-01 14:57:40 +0000";
layers = (
{
layerId = m01;
shapes = (
{
closed = 1;
nodes = (
(434,0,ls),
(516,0,o),
(585,70,o),
(585,148,cs),
(585,409,l),
(584,475,o),
(532,509,o),
(437,509,c),
(437,526,l),
(537,526,o),
(585,563,o),
(585,623,c),
(585,691,o),
(554,717,o),
(462,717,c),
(32,717,l),
(32,554,l),
(152,554,l),
(152,589,o),
(188,629,o),
(231,629,cs),
(302,629,ls),
(340,629,o),
(374,623,o),
(374,591,cs),
(374,565,o),
(340,555,o),
(286,555,c),
(286,483,l),
(350,483,o),
(374,480,o),
(374,447,cs),
(374,423,o),
(349,411,o),
(310,411,cs),
(229,411,ls),
(191,411,o),
(148,447,o),
(148,480,c),
(32,480,l),
(32,0,l)
);
}
);
width = 617;
}
);
unicode = 51;
},
{
glyphname = four;
lastChange = "2023-11-01 15:01:12 +0000";
layers = (
{
layerId = m01;
shapes = (
{
closed = 1;
nodes = (
(560,0,l),
(560,217,l),
(519,217,ls),
(474,217,o),
(472,239,o),
(472,263,cs),
(472,291,o),
(491,313,o),
(519,313,cs),
(667,313,l),
(667,465,l),
(523,465,l),
(523,716,l),
(198,716,l),
(198,570,o),
(149,480,o),
(34,423,c),
(32,313,l),
(254,313,ls),
(292,313,o),
(312,297,o),
(312,263,cs),
(312,238,o),
(282,217,o),
(254,217,cs),
(203,217,l),
(203,0,l)
);
},
{
closed = 1;
nodes = (
(370,616,l),
(370,465,l),
(272,465,l)
);
}
);
width = 699;
}
);
unicode = 52;
},
{
glyphname = five;
lastChange = "2023-11-01 14:58:04 +0000";
layers = (
{
layerId = m01;
shapes = (
{
closed = 1;
nodes = (
(465,-1,l),
(567,-1,o),
(621,59,o),
(621,155,cs),
(621,419,ls),
(621,485,o),
(588,571,o),
(465,571,cs),
(287,571,l),
(287,647,l),
(447,647,ls),
(479,647,o),
(493,630,o),
(493,590,c),
(592,590,l),
(592,716,l),
(32,716,l),
(32,494,l),
(374,494,ls),
(405,494,o),
(428,477,o),
(428,452,cs),
(428,425,o),
(399,412,o),
(374,412,cs),
(235,412,ls),
(203,412,o),
(188,425,o),
(188,461,c),
(32,461,l),
(32,-1,l)
);
}
);
width = 653;
}
);
unicode = 53;
},
{
glyphname = six;
lastChange = "2023-11-01 14:59:22 +0000";
layers = (
{
layerId = m01;
shapes = (
{
closed = 1;
nodes = (
(451,0,ls),
(531,2,o),
(586,18,o),
(586,131,cs),
(586,435,ls),
(586,494,o),
(528,535,o),
(461,535,cs),
(296,535,l),
(296,573,ls),
(296,625,o),
(331,636,o),
(357,636,cs),
(385,636,o),
(416,616,o),
(416,568,c),
(565,568,l),
(565,716,l),
(186,716,ls),
(78,716,o),
(33,622,o),
(33,551,cs),
(32,131,ls),
(32,63,o),
(71,0,o),
(168,0,cs)
);
},
{
closed = 1;
nodes = (
(296,478,l),
(416,478,ls),
(458,478,o),
(465,456,o),
(465,445,cs),
(465,433,o),
(460,412,o),
(417,412,cs),
(296,412,l)
);
}
);
width = 618;
}
);
unicode = 54;
},
{
glyphname = seven;
lastChange = "2023-11-01 14:58:11 +0000";
layers = (
{
layerId = m01;
shapes = (
{
closed = 1;
nodes = (
(510,0,l),
(510,412,l),
(398,412,l),
(563,716,l),
(32,716,l),
(32,534,l),
(182,534,l),
(186,591,l),
(343,591,l),
(242,412,l),
(105,412,l),
(105,0,l)
);
}
);
width = 595;
}
);
unicode = 55;
},
{
glyphname = eight;
lastChange = "2023-11-01 14:58:22 +0000";
layers = (
{
layerId = m01;
shapes = (
{
closed = 1;
nodes = (
(506,0,ls),
(581,0,o),
(668,47,o),
(668,182,cs),
(668,360,ls),
(668,484,o),
(575,490,o),
(553,501,c),
(575,507,o),
(657,516,o),
(657,602,cs),
(657,665,o),
(613,716,o),
(563,716,cs),
(137,716,ls),
(87,716,o),
(43,665,o),
(43,602,cs),
(43,516,o),
(125,507,o),
(147,501,c),
(125,490,o),
(32,484,o),
(32,360,cs),
(32,182,ls),
(32,47,o),
(119,0,o),
(194,0,cs)
);
},
{
closed = 1;
nodes = (
(253,412,o),
(235,424,o),
(235,448,cs),
(235,471,o),
(253,484,o),
(286,484,cs),
(414,484,ls),
(447,484,o),
(465,471,o),
(465,448,cs),
(465,424,o),
(447,412,o),
(414,412,cs),
(286,412,ls)
);
},
{
closed = 1;
nodes = (
(250,579,o),
(239,583,o),
(239,599,cs),
(239,608,o),
(247,619,o),
(275,619,cs),
(425,619,ls),
(453,619,o),
(461,608,o),
(461,599,cs),
(461,583,o),
(450,579,o),
(425,579,cs),
(275,579,ls)
);
}
);
width = 700;
}
);
unicode = 56;
},
{
glyphname = nine;
lastChange = "2023-11-01 14:58:38 +0000";
layers = (
{
layerId = m01;
shapes = (
{
closed = 1;
nodes = (
(514,0,l),
(593,9,o),
(637,84,o),
(637,164,cs),
(637,597,ls),
(637,669,o),
(567,716,o),
(502,716,cs),
(125,716,ls),
(65,716,o),
(32,669,o),
(32,624,cs),
(32,593,ls),
(32,551,o),
(68,510,o),
(109,510,cs),
(424,510,l),
(424,453,ls),
(424,429,o),
(392,412,o),
(368,412,cs),
(204,412,ls),
(186,412,o),
(164,431,o),
(164,449,cs),
(164,473,l),
(41,473,l),
(41,140,ls),
(41,42,o),
(123,0,o),
(181,0,cs)
);
},
{
closed = 1;
nodes = (
(251,559,o),
(234,572,o),
(234,592,cs),
(234,613,o),
(251,625,o),
(280,625,cs),
(424,625,l),
(424,559,l),
(280,559,ls)
);
}
);
width = 669;
}
);
unicode = 57;
},
{
glyphname = one.ss01;
lastChange = "2023-11-01 14:57:21 +0000";
layers = (
{
layerId = m01;
shapes = (
{
closed = 1;
nodes = (
(471,0,l),
(471,412,l),
(383,412,l),
(383,716,l),
(158,716,l),
(158,646,o),
(77,544,o),
(26,544,c),
(158,544,l),
(158,412,l),
(32,412,l),
(32,0,l)
);
}
);
width = 503;
}
);
},
{
glyphname = four.ss01;
lastChange = "2023-11-01 15:03:18 +0000";
layers = (
{
layerId = m01;
shapes = (
{
closed = 1;
nodes = (
(614,0,l),
(614,412,l),
(519,412,ls),
(474,412,o),
(472,429,o),
(472,447,cs),
(472,468,o),
(491,484,o),
(519,484,cs),
(667,484,l),
(667,593,l),
(523,593,l),
(523,716,l),
(198,716,l),
(198,593,o),
(149,593,o),
(34,593,c),
(32,484,l),
(254,484,ls),
(292,484,o),
(312,472,o),
(312,447,cs),
(312,428,o),
(282,412,o),
(254,412,cs),
(124,412,l),
(124,0,l)
);
},
{
closed = 1;
nodes = (
(370,652,l),
(370,593,l),
(307,593,l)
);
}
);
width = 699;
}
);
},
{
glyphname = period;
layers = (
{
layerId = m01;
shapes = (
{
closed = 1;
nodes = (
(159,14,o),
(223,49,o),
(223,115,cs),
(223,165,o),
(178,214,o),
(125,214,cs),
(69,214,o),
(24,169,o),
(24,115,cs),
(24,59,o),
(61,14,o),
(124,14,c)
);
}
);
width = 247;
}
);
unicode = 46;
},
{
glyphname = comma;
layers = (
{
layerId = m01;
shapes = (
{
closed = 1;
nodes = (
(35,80,l),
(120,80,ls),
(151,80,o),
(159,39,o),
(134,14,cs),
(24,-96,l),
(175,-25,ls),
(249,10,o),
(280,63,o),
(280,103,cs),
(280,166,o),
(234,211,o),
(167,210,cs),
(37,208,l)
);
}
);
width = 304;
}
);
unicode = 44;
},
{
glyphname = exclam;
layers = (
{
layerId = m01;
shapes = (
{
ref = period;
},
{
closed = 1;
nodes = (
(67,732,l),
(173,722,l),
(143,257,l),
(99,255,l)
);
}
);
width = 247;
}
);
unicode = 33;
},
{
glyphname = question;
layers = (
{
layerId = m01;
shapes = (
{
closed = 1;
nodes = (
(112,538,l),
(113,590,l),
(113,605,o),
(133,624,o),
(150,624,c),
(175,624,o),
(192,605,o),
(192,575,c),
(193,505,l),
(193,479,o),
(180,470,o),
(143,444,cs),
(106,418,o),
(95,395,o),
(95,358,c),
(91,260,l),
(135,262,l),
(133,321,l),
(133,349,o),
(145,361,o),
(191,379,cs),
(258,404,o),
(298,464,o),
(298,539,cs),
(298,660,o),
(249,720,o),
(149,720,c),
(77,720,o),
(24,675,o),
(24,614,c),
(24,531,l)
);
},
{
closed = 1;
nodes = (
(75,214,o),
(182,214,o),
(131,214,cs)
);
},
{
pos = (6,0);
ref = period;
}
);
width = 322;
}
);
unicode = 63;
},
{
glyphname = bullet;
layers = (
{
layerId = m01;
shapes = (
{
closed = 1;
nodes = (
(218,361,o),
(311,412,o),
(311,506,cs),
(311,579,o),
(245,649,o),
(169,649,cs),
(90,649,o),
(24,583,o),
(24,506,cs),
(24,427,o),
(78,361,o),
(168,361,c)
);
}
);
width = 335;
}
);
metricLeft = period;
metricRight = period;
unicode = 8226;
},
{
glyphname = asterisk;
layers = (
{
background = {
shapes = (
{
closed = 1;
nodes = (
(162,868,l),
(216,868,l),
(216,552,l),
(162,550,l)
);
},
{
closed = 1;
nodes = (
(281,851,l),
(337,829,l),
(71,563,l),
(24,592,l)
);
},
{
closed = 1;
nodes = (
(285,565,l),
(30,820,l),
(92,851,l),
(342,586,l)
);
},
{
closed = 1;
nodes = (
(348,733,l),
(348,682,l),
(32,682,l),
(40,736,l)
);
}
);
};
layerId = m01;
shapes = (
{
closed = 1;
nodes = (
(219,565,l),
(219,641,l),
(276,578,l),
(333,595,l),
(242,683,l),
(342,685,l),
(342,732,l),
(248,732,l),
(337,819,l),
(280,844,l),
(219,779,l),
(219,868,l),
(159,867,l),
(159,763,l),
(92,840,l),
(30,810,l),
(115,733,l),
(30,734,l),
(23,680,l),
(108,680,l),
(24,602,l),
(71,576,l),
(159,659,l),
(159,563,l)
);
}
);
width = 372;
}
);
unicode = 42;
},
{
glyphname = numbersign;
layers = (
{
layerId = m01;
shapes = (
{
closed = 1;
nodes = (
(431,-32,l),
(671,762,l),
(548,762,l),
(321,-32,l)
);
},
{
closed = 1;
nodes = (
(159,-32,l),
(399,762,l),
(286,762,l),
(59,-32,l)
);
},
{
closed = 1;
nodes = (
(674,457,l),
(709,561,l),
(115,561,l),
(80,457,l)
);
},
{
closed = 1;
nodes = (
(607,209,l),
(641,313,l),
(44,313,l),
(10,209,l)
);
}
);
width = 700;
}
);
unicode = 35;
},
{
glyphname = slash;
layers = (
{
layerId = m01;
shapes = (
{
closed = 1;
nodes = (
(379,762,l),
(512,762,l),
(202,-32,l),
(82,-32,l)
);
}
);
width = 522;
}
);
unicode = 47;
},
{
glyphname = comma.ss01;
layers = (
{
layerId = m01;
shapes = (
{
closed = 1;
nodes = (
(95,-6,l),
(116,26,o),
(115,47,o),
(90,71,cs),
(66,95,o),
(59,125,o),
(70,156,cs),
(86,199,o),
(119,215,o),
(192,215,cs),
(230,215,o),
(260,172,o),
(260,119,cs),
(260,72,o),
(224,17,o),
(170,-22,cs),
(134,-48,o),
(71,-81,o),
(24,-99,c)
);
}
);
width = 284;
}
);
},
{
glyphname = hyphen;
layers = (
{
layerId = m01;
shapes = (
{
closed = 1;
nodes = (
(24,489,l),
(245,489,l),
(245,573,l),
(24,573,l)
);
}
);
width = 269;
}
);
unicode = 45;
},
{
glyphname = endash;
layers = (
{
layerId = m01;
shapes = (
{
closed = 1;
nodes = (
(24,489,l),
(342,489,l),
(342,573,l),
(24,573,l)
);
}
);
width = 366;
}
);
metricLeft = hyphen;
metricRight = hyphen;
unicode = 8211;
},
{
glyphname = emdash;
layers = (
{
layerId = m01;
shapes = (
{
closed = 1;
nodes = (
(24,489,l),
(694,489,l),
(694,573,l),
(24,573,l)
);
}
);
width = 718;
}
);
metricLeft = hyphen;
metricRight = hyphen;
unicode = 8212;
},
{
glyphname = underscore;
layers = (
{
layerId = m01;
shapes = (
{
closed = 1;
nodes = (
(24,-40,l),
(534,-40,l),
(534,14,l),
(24,14,l)
);
}
);
width = 558;
}
);
metricLeft = hyphen;
metricRight = hyphen;
unicode = 95;
},
{
glyphname = parenleft;
layers = (
{
layerId = m01;
shapes = (
{
closed = 1;
nodes = (
(415,-12,l),
(301,-12,o),
(184,196,o),
(184,398,cs),
(184,545,o),
(275,731,o),
(364,766,c),
(356,832,l),
(197,832,o),
(24,606,o),
(24,398,cs),
(24,101,o),
(182,-100,o),
(415,-100,c)
);
}
);
width = 439;
}
);
unicode = 40;
},
{
glyphname = braceright;
layers = (
{
layerId = m01;
shapes = (
{
closed = 1;
nodes = (
(359,-70,o),
(462,37,o),
(492,185,cs),
(505,249,o),
(527,334,o),
(591,391,c),
(542,423,o),
(476,518,o),
(468,613,cs),
(459,716,o),
(333,806,o),
(241,806,cs),
(115,806,o),
(24,740,o),
(24,606,c),
(115,609,l),
(115,666,o),
(174,710,o),
(245,710,cs),
(300,710,o),
(364,627,o),
(364,537,cs),
(364,483,o),
(414,430,o),
(466,394,c),
(402,334,o),
(369,249,o),
(363,165,cs),
(360,126,o),
(300,21,o),
(243,21,cs),
(174,21,o),
(130,57,o),
(130,114,c),
(32,114,l),
(32,-3,o),
(92,-70,o),
(247,-70,cs)
);
}
);
width = 601;
}
);
unicode = 125;
},
{
glyphname = bracketleft;
layers = (
{
layerId = m01;
shapes = (
{
closed = 1;
nodes = (
(381,68,l),
(263,71,l),
(263,41,o),
(255,14,o),
(234,15,cs),
(150,20,l),
(152,735,l),
(227,730,ls),
(249,729,o),
(265,710,o),
(265,677,c),
(380,675,l),
(376,820,l),
(27,816,l),
(24,-76,l),
(384,-77,l)
);
}
);
width = 408;
}
);
unicode = 91;
},
{
glyphname = quoteright;
layers = (
{
background = {
shapes = (
{
closed = 1;
nodes = (
(79,591,l),
(94,626,o),
(89,647,o),
(61,666,cs),
(33,686,o),
(21,714,o),
(27,746,cs),
(36,792,o),
(65,813,o),
(137,825,cs),
(175,831,o),
(212,794,o),
(220,742,cs),
(228,696,o),
(202,635,o),
(155,588,cs),
(124,556,o),
(68,514,o),
(24,487,c)
);
}
);
};
layerId = m01;
shapes = (
{
closed = 1;
nodes = (
(79,591,l),
(84,605,o),
(87,616,o),
(87,624,cs),
(87,641,o),
(79,654,o),
(61,666,cs),
(37,683,o),
(25,706,o),
(25,730,cs),
(25,800,o),
(85,825,o),
(137,825,cs),
(184,825,o),
(221,796,o),
(221,725,cs),
(221,681,o),
(195,628,o),
(155,588,cs),
(126,558,o),
(72,516,o),
(24,487,c)
);
}
);
width = 245;
}
);
unicode = 8217;
},
{
glyphname = guilsinglleft;
layers = (
{
layerId = m01;
shapes = (
{
closed = 1;
nodes = (
(326,233,l),
(156,424,l),
(326,615,l),
(214,615,l),
(24,424,l),
(214,233,l)
);
}
);
width = 350;
}
);
unicode = 8249;
},
{
glyphname = quotedbl;
layers = (
{
layerId = m01;
shapes = (
{
closed = 1;
nodes = (
(24,867,l),
(120,867,l),
(90,584,l),
(36,581,l)
);
},
{
closed = 1;
nodes = (
(157,867,l),
(253,867,l),
(223,584,l),
(169,581,l)
);
}
);
width = 277;
}
);
unicode = 34;
},
{
glyphname = ringcomb;
lastChange = "2023-11-01 16:02:07 +0000";
layers = (
{
anchors = (
{
name = _top;
pos = (154,716);
},
{
name = top;
pos = (154,880);
}
);
layerId = m01;
shapes = (
{
closed = 1;
nodes = (
(229,759,ls),
(247,759,o),
(263,779,o),
(263,798,cs),
(263,838,ls),
(263,861,o),
(245,880,o),
(229,880,cs),
(77,880,ls),
(61,880,o),
(45,865,o),
(45,848,cs),
(45,792,ls),
(45,777,o),
(61,759,o),
(76,759,cs)
);
},
{
closed = 1;
nodes = (
(222,842,o),
(231,833,o),
(231,824,cs),
(231,814,ls),
(231,805,o),
(222,797,o),
(213,797,cs),
(96,797,ls),
(87,797,o),
(77,807,o),
(77,814,cs),
(77,821,ls),
(77,831,o),
(86,842,o),
(96,842,cs),
(214,842,ls)
);
}
);
width = 300;
}
);
unicode = 778;
},
{
glyphname = ogonekcomb;
lastChange = "2023-11-01 16:07:58 +0000";
layers = (
{
anchors = (
{
name = _ogonek;
pos = (211,0);
}
);
layerId = m01;
shapes = (
{
closed = 1;
nodes = (
(211,-94,l),
(192,-116,o),
(179,-131,o),
(148,-131,cs),
(120,-131,o),
(107,-113,o),
(107,-83,cs),
(107,-36,o),
(166,-17,o),
(211,0,c),
(134,0,l),
(97,-11,o),
(63,-43,o),
(63,-90,cs),
(63,-146,o),
(109,-177,o),
(153,-177,cs),
(173,-177,o),
(192,-170,o),
(211,-151,c)
);
}
);
width = 300;
}
);
unicode = 808;
},
